<?xml version="1.0" encoding="UTF-8" standalone="no"?>
<svg
   height="24px"
   viewBox="0 0 24 24"
   width="24px"
   fill="#FFFFFF"
   version="1.1"
   id="svg6"
   sodipodi:docname="copy_user - press.svg"
   inkscape:version="1.2.1 (9c6d41e410, 2022-07-14)"
   inkscape:export-filename="copy_user - press.png"
   inkscape:export-xdpi="200"
   inkscape:export-ydpi="200"
   xmlns:inkscape="http://www.inkscape.org/namespaces/inkscape"
   xmlns:sodipodi="http://sodipodi.sourceforge.net/DTD/sodipodi-0.dtd"
   xmlns="http://www.w3.org/2000/svg"
   xmlns:svg="http://www.w3.org/2000/svg">
  <defs
     id="defs10" />
  <sodipodi:namedview
     id="namedview8"
     pagecolor="#ffffff"
     bordercolor="#000000"
     borderopacity="0.25"
     inkscape:showpageshadow="2"
     inkscape:pageopacity="0.0"
     inkscape:pagecheckerboard="0"
     inkscape:deskcolor="#d1d1d1"
     showgrid="false"
     inkscape:zoom="19.666667"
     inkscape:cx="9.3050846"
     inkscape:cy="20.338983"
     inkscape:window-width="1920"
     inkscape:window-height="1177"
     inkscape:window-x="-8"
     inkscape:window-y="-8"
     inkscape:window-maximized="1"
     inkscape:current-layer="svg6" />
  <path
     d="M0 0h24v24H0z"
     fill="none"
     id="path2" />
  <path
     d="M16 1H4c-1.1 0-2 .9-2 2v14h2V3h12V1zm3 4H8c-1.1 0-2 .9-2 2v14c0 1.1.9 2 2 2h11c1.1 0 2-.9 2-2V7c0-1.1-.9-2-2-2zm0 16H8V7h11v14z"
     id="path4"
     style="fill:#e9e9e9;fill-opacity:1" />
  <path
     d="m 13.500947,13.860491 c 1.524661,0 2.759567,-1.170548 2.759567,-2.615748 0,-1.4452013 -1.234906,-2.6157488 -2.759567,-2.6157488 -1.524661,0 -2.759567,1.1705475 -2.759567,2.6157488 0,1.4452 1.234906,2.615748 2.759567,2.615748 z m 0,1.307875 c -1.842011,0 -5.5191346,0.876275 -5.5191346,2.615748 v 1.307874 H 19.020081 v -1.307874 c 0,-1.739473 -3.677123,-2.615748 -5.519134,-2.615748 z"
     id="path2001"
     inkscape:transform-center-x="0.32246193"
     inkscape:transform-center-y="-0.25863258"
     style="fill:#e9e9e9;fill-opacity:1;stroke-width:0.671674" />
</svg>
