<?xml version="1.0" encoding="UTF-8" standalone="no"?>
<svg
   height="24px"
   viewBox="0 0 24 24"
   width="24px"
   fill="#FFFFFF"
   version="1.1"
   id="svg6"
   sodipodi:docname="copy_psw.svg"
   inkscape:version="1.2.1 (9c6d41e410, 2022-07-14)"
   inkscape:export-filename="copy_psw.png"
   inkscape:export-xdpi="200"
   inkscape:export-ydpi="200"
   xmlns:inkscape="http://www.inkscape.org/namespaces/inkscape"
   xmlns:sodipodi="http://sodipodi.sourceforge.net/DTD/sodipodi-0.dtd"
   xmlns="http://www.w3.org/2000/svg"
   xmlns:svg="http://www.w3.org/2000/svg">
  <defs
     id="defs10" />
  <sodipodi:namedview
     id="namedview8"
     pagecolor="#ffffff"
     bordercolor="#000000"
     borderopacity="0.25"
     inkscape:showpageshadow="2"
     inkscape:pageopacity="0.0"
     inkscape:pagecheckerboard="0"
     inkscape:deskcolor="#d1d1d1"
     showgrid="false"
     inkscape:zoom="19.666667"
     inkscape:cx="-1.1186441"
     inkscape:cy="19.169492"
     inkscape:window-width="1920"
     inkscape:window-height="1177"
     inkscape:window-x="-8"
     inkscape:window-y="-8"
     inkscape:window-maximized="1"
     inkscape:current-layer="svg6" />
  <path
     d="M0 0h24v24H0z"
     fill="none"
     id="path2" />
  <path
     d="M16 1H4c-1.1 0-2 .9-2 2v14h2V3h12V1zm3 4H8c-1.1 0-2 .9-2 2v14c0 1.1.9 2 2 2h11c1.1 0 2-.9 2-2V7c0-1.1-.9-2-2-2zm0 16H8V7h11v14z"
     id="path4"
     style="fill:#828282;fill-opacity:1" />
  <g
     id="g4863"
     transform="matrix(0.44298921,0,0,0.38559321,8.1968414,9.4279661)"
     style="fill:#828282;fill-opacity:1">
    <g
       id="g4861"
       style="fill:#828282;fill-opacity:1">
      <path
         d="m 2,17 h 20 v 2 H 2 Z M 3.15,12.95 4,11.47 4.85,12.95 6.15,12.2 5.3,10.72 H 7 V 9.22 H 5.3 L 6.15,7.75 4.85,7 4,8.47 3.15,7 1.85,7.75 2.7,9.22 H 1 v 1.5 H 2.7 L 1.85,12.2 Z m 6.7,-0.75 1.3,0.75 0.85,-1.48 0.85,1.48 1.3,-0.75 -0.85,-1.48 H 15 V 9.22 H 13.3 L 14.15,7.75 12.85,7 12,8.47 11.15,7 9.85,7.75 10.7,9.22 H 9 v 1.5 h 1.7 z M 23,9.22 H 21.3 L 22.15,7.75 20.85,7 20,8.47 19.15,7 17.85,7.75 18.7,9.22 H 17 v 1.5 h 1.7 l -0.85,1.48 1.3,0.75 0.85,-1.48 0.85,1.48 1.3,-0.75 -0.85,-1.48 H 23 Z"
         id="path4859"
         style="fill:#828282;fill-opacity:1" />
    </g>
  </g>
</svg>
